<?xml version="1.0" encoding="UTF-8"?> <!-- Generator: Adobe Illustrator 17.1.0, SVG Export Plug-In . SVG Version: 6.00 Build 0) --> <svg xmlns="http://www.w3.org/2000/svg" xmlns:xlink="http://www.w3.org/1999/xlink" version="1.1" id="Capa_1" x="0px" y="0px" width="595.3px" height="841.9px" viewBox="0 0 595.3 841.9" xml:space="preserve"> <g> <path fill="#05C596" d="M634,765.7l-33-33V306.3l-6-6l-55-55v-190H52.6V689h61v61h470.3l33,33c2.4,2.4,5.4,3.6,8.6,3.6 s6.3-1.1,8.6-3.6C638.7,778.3,638.7,770.6,634,765.7z M559.4,299.1H418.2V157.9L540,279.7L559.4,299.1z M77,664.7v-585h438.7V221 l-98.5-98.5l-6-6H113.6v548.4H77V664.7z M137.8,725.6V689V140.6h255.9v182.8h182.8v384.9L485,616.8c21.1-25.1,34.1-57.6,34.1-92.8 c0-79.6-64.7-144.1-144.1-144.1s-144.2,64.7-144.2,144.1S295.5,668,374.9,668c35.4,0,67.7-12.9,92.8-34.1l91.5,91.5H137.8V725.6z M374.9,643.7c-66,0-119.8-53.7-119.8-119.8s53.7-119.8,119.8-119.8s119.8,53.7,119.8,119.8S441,643.7,374.9,643.7z"></path> <path fill="#05C596" d="M303.9,494.1h73.1c6.7,0,12.1-5.4,12.1-12.1c0-6.7-5.4-12.1-12.1-12.1h-73.1c-6.7,0-12.1,5.4-12.1,12.1 C291.8,488.6,297.2,494.1,303.9,494.1z"></path> <path fill="#05C596" d="M450.2,542.8H303.9c-6.7,0-12.1,5.4-12.1,12.1s5.4,12.1,12.1,12.1h146.2c6.7,0,12.1-5.4,12.1-12.1 C462.3,548.2,456.9,542.8,450.2,542.8z"></path> </g> </svg> 