<?xml version="1.0" encoding="UTF-8"?> <!-- Generator: Adobe Illustrator 17.1.0, SVG Export Plug-In . SVG Version: 6.00 Build 0) --> <svg xmlns="http://www.w3.org/2000/svg" xmlns:xlink="http://www.w3.org/1999/xlink" version="1.1" id="Capa_1" x="0px" y="0px" width="595.3px" height="841.9px" viewBox="0 0 595.3 841.9" xml:space="preserve"> <g> <path fill="#05C596" d="M297.6,123.3c-6.7,0-12.1,5.5-12.1,12.1c0,6.6,5.5,12.1,12.1,12.1c150.8,0,273.5,122.7,273.5,273.5 S448.4,694.4,297.6,694.4S24.2,571.7,24.2,420.9c0-102.5,56.6-195.7,147.8-242.9c5.9-3,8.3-10.3,5.2-16.3s-10.3-8.3-16.3-5.2 C61.6,207.9,0,309.3,0,420.9c0,164.2,133.5,297.6,297.6,297.6s297.6-133.5,297.6-297.6S461.8,123.3,297.6,123.3z"></path> <path fill="#05C596" d="M414.4,267.6c-33.7-25.7-74.1-39.3-116.7-39.3c-106.3,0-192.7,86.4-192.7,192.7s86.4,192.7,192.7,192.7 c51.5,0,99.9-20,136.3-56.4c4.8-4.8,4.8-12.4,0-17.1c-4.8-4.7-12.4-4.8-17.1,0c-31.9,31.9-74.1,49.3-119.1,49.3 c-92.9,0-168.5-75.6-168.5-168.5s75.6-168.5,168.5-168.5c74.5,0,141,49.9,161.7,121.4c1.9,6.4,8.6,10.1,15,8.3 c6.4-1.9,10.1-8.6,8.3-15C471.2,327.8,447,292.5,414.4,267.6z"></path> <path fill="#05C596" d="M439.7,384.3c-4.8-4.8-12.4-4.8-17.1,0c-4.8,4.8-4.8,12.4,0,17.1l45.6,45.6c2.3,2.3,5.3,3.6,8.6,3.6 s6.3-1.3,8.6-3.6l45.6-45.6c4.8-4.8,4.8-12.4,0-17.1c-4.8-4.8-12.4-4.8-17.1,0l-37.2,37L439.7,384.3z"></path> </g> </svg> 