<?xml version="1.0" encoding="UTF-8"?> <!-- Generator: Adobe Illustrator 17.1.0, SVG Export Plug-In . SVG Version: 6.00 Build 0) --> <svg xmlns="http://www.w3.org/2000/svg" xmlns:xlink="http://www.w3.org/1999/xlink" version="1.1" id="Layer_1" x="0px" y="0px" width="595.3px" height="841.9px" viewBox="0 0 595.3 841.9" xml:space="preserve"> <g> <g> <g> <path fill="#05C596" d="M549.9,386.8H412.3c-3.3,0-5.1-1.9-5.9-2.9s-2.1-3.4-1.3-6.5l24.5-91.5c10.6-39.4-12.9-80.1-52.3-90.7 c-17.2-4.7-35,5.7-39.6,22.9l-17.2,64.2c-7.6,28.3-22.2,53.9-42.6,74.4c-19.8,20-40.7,36.3-54.4,47c-5.2,4.1-9.4,7.3-12.3,9.9 l-4.9,4.2c-2.8,2.3-6.3,3.7-9.9,3.7h-50v-35.1c0-7.3-5.9-13.3-13.3-13.3H13.4C5.9,373,0,378.9,0,386.4v313.9 c0,7.3,5.9,13.3,13.3,13.3H133c7.3,0,13.3-5.9,13.3-13.3v-35.1h50c3.6,0,7.1,1.3,9.9,3.7c23,19.9,52.4,30.9,82.9,30.9h221 c25,0,45.3-20.3,45.3-45.3v-7.7c0-9.5-2.9-18.4-7.9-25.6c12.8-8,21.3-22.2,21.3-38.4v-7.6c0-9.5-2.9-18.4-7.9-25.6 c12.8-8,21.3-22.2,21.3-38.4v-7.6c0-9.5-2.9-18.4-7.9-25.6c12.8-8,21.3-22.2,21.3-38.4v-7.6C595.3,407.2,574.9,386.8,549.9,386.8 z M119.8,686.9H26.6V399.6h93.1V686.9L119.8,686.9z M568.7,439.7c0,10.3-8.4,18.7-18.7,18.7h-35.8c-7.3,0-13.3,5.9-13.3,13.3 s5.9,13.3,13.3,13.3h22.6c10.3,0,18.7,8.4,18.7,18.7v7.6c0,10.3-8.4,18.7-18.7,18.7h-38.5c-7.3,0-13.3,5.9-13.3,13.3 s5.9,13.3,13.3,13.3h25.2c10.3,0,18.7,8.4,18.7,18.7v7.6c0,10.3-8.4,18.7-18.7,18.7h-39.2c-7.3,0-13.3,5.9-13.3,13.3 s5.9,13.3,13.3,13.3h25.8c10.3,0,18.7,8.4,18.7,18.7v7.6c0,10.3-8.4,18.7-18.7,18.7H289c-24.1,0-47.3-8.7-65.5-24.4 c-7.6-6.5-17.2-10.1-27.3-10.1h-50V448h50c10,0,19.6-3.6,27.2-10.1l4.9-4.2c2.3-2.1,6.5-5.2,11.3-9c14.3-11.2,36-28,57-49.3 c23.5-23.7,40.6-53.6,49.3-86.3l17.2-64.2c0.8-3.1,4-4.9,7.1-4.1c25.2,6.7,40.3,32.8,33.5,58l-24.5,91.5 c-1.5,5.5-1.5,11-0.3,16.4h-15.6c-7.3,0-13.3,5.9-13.3,13.3c0,7.3,5.9,13.3,13.3,13.3h186.7c10.3,0,18.7,8.4,18.7,18.7V439.7 L568.7,439.7z"></path> <path fill="#05C596" d="M83.2,664.6c7.3,0,13.3-5.9,13.3-13.3v-13.3c0-7.3-5.9-13.3-13.3-13.3c-7.3,0-13.3,5.9-13.3,13.3v13.3 C69.9,658.7,75.9,664.6,83.2,664.6z"></path> <path fill="#05C596" d="M234.5,465.5c-7.3,0-13.3,5.9-13.3,13.3v63.4c0,7.3,5.9,13.3,13.3,13.3c7.3,0,13.3-5.9,13.3-13.3v-63.4 C247.8,471.6,241.8,465.5,234.5,465.5z"></path> <path fill="#05C596" d="M234.5,580.1c-7.3,0-13.3,5.9-13.3,13.3v13.1c0,7.3,5.9,13.3,13.3,13.3c7.3,0,13.3-5.9,13.3-13.3v-13.1 C247.8,586,241.8,580.1,234.5,580.1z"></path> </g> </g> </g> </svg> 