<?xml version="1.0" encoding="UTF-8"?> <svg xmlns="http://www.w3.org/2000/svg" xmlns:xlink="http://www.w3.org/1999/xlink" version="1.1" id="Слой_1" x="0px" y="0px" viewBox="0 0 84.6 84.6" style="enable-background:new 0 0 84.6 84.6;" xml:space="preserve"> <style type="text/css"> .st0{clip-path:url(#SVGID_2_); fill:#05c495;} </style> <g> <defs> <rect id="SVGID_1_" y="0" width="84.6" height="84.6"></rect> </defs> <clipPath id="SVGID_2_"> <use xlink:href="#SVGID_1_" style="overflow:visible;"></use> </clipPath> <path class="st0" d="M83.1,0H27.8c-0.8,0-1.5,0.7-1.5,1.5v22.6H1.5c-0.8,0-1.5,0.7-1.5,1.5v43.9c0,0.8,0.7,1.5,1.5,1.5h13.1 l12.3,13c0.3,0.3,0.7,0.5,1.1,0.5c0.2,0,0.4,0,0.6-0.1c0.6-0.2,0.9-0.8,0.9-1.4l0-12h29.9c0.8,0,1.5-0.7,1.5-1.5V46.9h22.1 c0.8,0,1.5-0.7,1.5-1.5V1.5C84.6,0.7,83.9,0,83.1,0 M57.9,68.1H28.1c-0.8,0-1.5,0.7-1.5,1.5l0,9.7L16.4,68.5 c-0.3-0.3-0.7-0.5-1.1-0.5H3V27.1h23.3v18.3c0,0.8,0.7,1.5,1.5,1.5H39V58c0,0.6,0.4,1.1,0.9,1.4c0.2,0.1,0.4,0.1,0.6,0.1 c0.4,0,0.8-0.1,1.1-0.4l12.3-12.1h4V68.1z M81.6,43.9H53.3c-0.4,0-0.8,0.2-1.1,0.4L42,54.4v-9c0-0.8-0.7-1.5-1.5-1.5H29.3V3h52.2 V43.9z"></path> <path class="st0" d="M41.7,17.9L41.7,17.9c2.6,0,4.6-2.1,4.6-4.7c0-2.6-2.1-4.6-4.6-4.6h0c-2.6,0-4.6,2.1-4.6,4.7 C37.1,15.8,39.2,17.9,41.7,17.9 M41.7,11.6L41.7,11.6c0.9,0,1.6,0.7,1.6,1.6c0,0.4-0.2,0.8-0.5,1.2c-0.3,0.3-0.7,0.5-1.2,0.5 c-0.4,0-0.8-0.2-1.2-0.5c-0.3-0.3-0.5-0.7-0.5-1.2C40.1,12.3,40.8,11.6,41.7,11.6"></path> <path class="st0" d="M56.5,17.9L56.5,17.9c2.6,0,4.6-2.1,4.6-4.7c0-2.6-2.1-4.6-4.6-4.6h0c-2.6,0-4.6,2.1-4.6,4.7 c0,1.2,0.5,2.4,1.4,3.3C54.1,17.4,55.3,17.9,56.5,17.9 M56.5,11.6L56.5,11.6c0.9,0,1.6,0.7,1.6,1.6c0,0.4-0.2,0.8-0.5,1.2 c-0.3,0.3-0.7,0.5-1.2,0.5h0c-0.4,0-0.8-0.2-1.2-0.5c-0.3-0.3-0.5-0.7-0.5-1.2C54.9,12.3,55.6,11.6,56.5,11.6"></path> </g> </svg> 