<?xml version="1.0" encoding="UTF-8"?> <svg xmlns="http://www.w3.org/2000/svg" xmlns:xlink="http://www.w3.org/1999/xlink" version="1.1" id="Слой_1" x="0px" y="0px" viewBox="0 0 87.7 87.7" style="enable-background:new 0 0 87.7 87.7;" xml:space="preserve"> <style type="text/css"> .st0{clip-path:url(#SVGID_2_); fill:#05c495;} </style> <g> <defs> <rect id="SVGID_1_" y="0" width="87.7" height="87.7"></rect> </defs> <clipPath id="SVGID_2_"> <use xlink:href="#SVGID_1_" style="overflow:visible;"></use> </clipPath> <path class="st0" d="M87.7,38.5c0-3.7-1.7-7.1-4.5-9.4c0.1-0.6,0.2-1.2,0.2-1.7c0-4.6-3.4-8.4-7.8-9c0.1-0.5,0.1-1,0.1-1.6 c0-4.9-3.8-8.9-8.7-9.1c-0.1,0-0.2,0-0.2,0c0,0-0.1,0-0.1,0c0,0-0.1,0-0.1,0c-0.5,0-0.9,0-1.4,0.1C64.4,3.3,60.5,0,55.8,0 c-5.3,0-9.6,4.3-9.6,9.6v65.9c0,6.7,5.5,12.2,12.2,12.2c4.5,0,8.5-2.4,10.6-6.2c0.5,0.1,0.9,0.2,1.4,0.2c2.9,0.2,5.7-0.8,7.9-2.7 c2.2-1.9,3.5-4.6,3.7-7.5c0.1-1.2-0.1-2.4-0.4-3.6c3.8-2.7,6-7,6-11.6c0-3.4-1.2-6.6-3.4-9.2C86.5,44.7,87.7,41.7,87.7,38.5 M84.7,56.2c0,3.5-1.6,6.7-4.3,8.8c-2-3.2-5.6-5.2-9.4-5.2c-0.8,0-1.5,0.7-1.5,1.5c0,0.8,0.7,1.5,1.5,1.5c3.3,0,6.4,2.1,7.6,5.2 c0.4,1.1,0.6,2.2,0.5,3.3c-0.1,2.1-1.1,4.1-2.7,5.4c-1.6,1.4-3.6,2.1-5.8,2c-0.6,0-1.2-0.2-1.9-0.4c-0.7-0.2-1.5,0.1-1.8,0.8 c-1.4,3.4-4.8,5.6-8.5,5.6c-5.1,0-9.2-4.1-9.2-9.2V9.6c0-3.7,3-6.6,6.6-6.6c3.4,0,6.2,2.6,6.6,5.9c-2.8,1.6-4.6,4.5-4.6,7.9 c0,0.8,0.7,1.5,1.5,1.5c0.8,0,1.5-0.7,1.5-1.5c0-3.3,2.7-6.1,6-6.1c3.3,0.1,6,2.8,6,6.1c0,0.6-0.1,1.3-0.4,2 c-0.1,0.2-0.1,0.3-0.1,0.5c0,0,0,0.1,0,0.1c0,0,0,0,0,0c-0.1,0.5,0,1,0.3,1.3c0.3,0.4,0.8,0.6,1.3,0.5c0.1,0,0.2,0,0.4,0 c3.4,0,6.1,2.8,6.1,6.1c0,0.6-0.1,1.2-0.3,1.8c-0.2,0.6,0,1.3,0.6,1.7c2.4,1.6,3.9,4.3,4,7.2c0,0,0,0,0,0c0,5-4.1,9.1-9.1,9.1 c-5,0-9.1-4.1-9.1-9.1c0-0.8-0.7-1.5-1.5-1.5c-0.8,0-1.5,0.7-1.5,1.5c0,6.7,5.4,12.1,12.1,12.1c2.2,0,4.3-0.6,6.1-1.7 C83.6,50.8,84.7,53.4,84.7,56.2"></path> <path class="st0" d="M31.9,0c-4.7,0-8.6,3.3-9.4,7.8c-0.5-0.1-0.9-0.1-1.4-0.1c0,0-0.1,0-0.1,0c0,0-0.1,0-0.1,0c-0.1,0-0.2,0-0.2,0 c-4.8,0.3-8.7,4.2-8.7,9.1c0,0.5,0,1,0.1,1.6c-4.4,0.7-7.8,4.5-7.8,9c0,0.6,0.1,1.1,0.2,1.7C1.7,31.4,0,34.9,0,38.5 c0,3.2,1.3,6.2,3.5,8.5c-2.2,2.6-3.4,5.8-3.4,9.2c0,4.7,2.2,8.9,6,11.6c-0.3,1.2-0.5,2.4-0.4,3.6c0.2,2.9,1.5,5.6,3.7,7.5 c2.2,1.9,5,2.9,7.9,2.7c0.5,0,0.9-0.1,1.4-0.2c2.1,3.8,6.2,6.2,10.6,6.2c6.7,0,12.2-5.5,12.2-12.2V9.6C41.5,4.3,37.2,0,31.9,0 M38.5,75.6c0,5.1-4.1,9.2-9.2,9.2c-3.7,0-7-2.2-8.5-5.6c-0.2-0.6-0.8-0.9-1.4-0.9c-0.2,0-0.3,0-0.5,0.1c-0.7,0.2-1.3,0.4-1.9,0.4 c-2.1,0.1-4.2-0.6-5.8-2c-1.6-1.4-2.5-3.3-2.7-5.4c-0.1-1.2,0.1-2.3,0.6-3.5c0,0,0,0,0-0.1c1.3-3.1,4.2-5,7.6-5 c0.8,0,1.5-0.7,1.5-1.5c0-0.8-0.7-1.5-1.5-1.5c-3.9,0-7.5,2-9.5,5.2c-2.7-2.1-4.3-5.3-4.3-8.8c0-2.8,1.1-5.5,3-7.5 c1.8,1.1,3.9,1.7,6.1,1.7c6.7,0,12.1-5.4,12.1-12.1c0-0.8-0.7-1.5-1.5-1.5s-1.5,0.7-1.5,1.5c0,5-4.1,9.1-9.1,9.1S3,43.3,3,38.2 c0,0,0,0,0,0c0.1-2.9,1.6-5.6,4-7.2c0.6-0.4,0.8-1.1,0.6-1.7c-0.2-0.7-0.3-1.3-0.3-1.9c0-3.4,2.7-6.1,6.2-6.1h0c0.1,0,0.2,0,0.3,0 c0.5,0,0.9-0.2,1.3-0.5c0.3-0.4,0.4-0.9,0.3-1.3c0,0,0,0,0,0c0,0,0-0.1,0-0.1c0-0.2,0-0.4-0.1-0.5c-0.2-0.7-0.4-1.4-0.4-2 c0-3.3,2.7-6.1,6-6.1c3.3,0.1,6,2.8,6,6.1c0,0.8,0.7,1.5,1.5,1.5s1.5-0.7,1.5-1.5c0-3.4-1.9-6.3-4.6-7.9C25.7,5.6,28.5,3,31.9,3 c3.7,0,6.6,3,6.6,6.6L38.5,75.6L38.5,75.6z"></path> </g> </svg> 