<?xml version="1.0" encoding="UTF-8"?> <svg xmlns="http://www.w3.org/2000/svg" xmlns:xlink="http://www.w3.org/1999/xlink" version="1.1" id="Слой_1" x="0px" y="0px" viewBox="0 0 78.1 77.9" style="enable-background:new 0 0 78.1 77.9;" xml:space="preserve"> <style type="text/css"> .st0{clip-path:url(#SVGID_2_); fill:#05c495;} </style> <g> <defs> <rect id="SVGID_1_" y="0" width="78.1" height="77.9"></rect> </defs> <clipPath id="SVGID_2_"> <use xlink:href="#SVGID_1_" style="overflow:visible;"></use> </clipPath> <path class="st0" d="M39.8,0c-0.3,0-1.3,0-1.4,0C17.4,0.4,0.4,17.5,0.2,38.5C0.1,38.7,0,38.9,0,39.2c0,0.3,0.1,0.5,0.2,0.7 c0.5,20.8,17.4,37.6,38.2,38c0.2,0,0.3,0,0.5,0c0,0,0.1,0,0.1,0c0.1,0,0.1,0,0.2,0c21.5,0,39-17.5,39-39C78.1,17.7,61,0.3,39.8,0 M75.1,37.7H60.8c-0.3-14.6-4.9-27-11.7-33.3C63.8,8.7,74.5,21.9,75.1,37.7 M37.7,3.1v34.6H19.8C20.2,19.2,27.9,4.2,37.7,3.1 M37.7,40.7v34.2C28,73.8,20.3,59,19.8,40.7H37.7z M40.7,74.8V40.7h17.2C57.4,58.6,50,73.1,40.7,74.8 M40.7,37.7V3.2 c9.4,1.7,16.8,16.4,17.2,34.5H40.7z M28.2,4.7c-6.6,6.4-11.1,18.6-11.3,33H3.2C3.7,22.2,14.1,9.2,28.2,4.7 M3.2,40.7h13.6 c0.3,14.2,4.8,26.2,11.3,32.5C14.2,68.7,3.9,55.9,3.2,40.7 M49.2,73.5c6.7-6.2,11.3-18.4,11.6-32.8h14.3 C74.4,56.3,63.6,69.3,49.2,73.5"></path> </g> </svg> 