<?xml version="1.0" encoding="UTF-8"?> <svg xmlns="http://www.w3.org/2000/svg" xmlns:xlink="http://www.w3.org/1999/xlink" version="1.1" id="Слой_1" x="0px" y="0px" viewBox="0 0 63.2 81.7" style="enable-background:new 0 0 63.2 81.7;" xml:space="preserve"> <style type="text/css"> .st0{clip-path:url(#SVGID_2_); fill:#05c495;} </style> <g> <defs> <rect id="SVGID_1_" width="63.2" height="81.7"></rect> </defs> <clipPath id="SVGID_2_"> <use xlink:href="#SVGID_1_" style="overflow:visible;"></use> </clipPath> <path class="st0" d="M61.7,5.1H42.4V1.5c0-0.8-0.7-1.5-1.5-1.5H22.4c-0.8,0-1.5,0.7-1.5,1.5v3.6H1.5C0.7,5.1,0,5.7,0,6.6v73.6 c0,0.8,0.7,1.5,1.5,1.5h60.2c0.8,0,1.5-0.7,1.5-1.5V6.6C63.2,5.7,62.6,5.1,61.7,5.1 M23.9,3h15.5V9H23.9V3z M60.2,78.7H3V8.1h17.9 v2.5c0,0.8,0.7,1.5,1.5,1.5h18.5c0.8,0,1.5-0.7,1.5-1.5V8.1h17.9V78.7z"></path> <path class="st0" d="M14.2,28.2H8.4c-0.8,0-1.5,0.7-1.5,1.5c0,0.8,0.7,1.5,1.5,1.5h5.8c0.8,0,1.5-0.7,1.5-1.5 C15.7,28.9,15,28.2,14.2,28.2"></path> <path class="st0" d="M19.9,29.7c0,0.8,0.7,1.5,1.5,1.5h33.5c0.8,0,1.5-0.7,1.5-1.5c0-0.8-0.7-1.5-1.5-1.5H21.4 C20.5,28.2,19.9,28.9,19.9,29.7"></path> <path class="st0" d="M14.2,41.6H8.4c-0.8,0-1.5,0.7-1.5,1.5c0,0.8,0.7,1.5,1.5,1.5h5.8c0.8,0,1.5-0.7,1.5-1.5 C15.7,42.3,15,41.6,14.2,41.6"></path> <path class="st0" d="M54.8,41.6H21.4c-0.8,0-1.5,0.7-1.5,1.5c0,0.8,0.7,1.5,1.5,1.5h33.5c0.8,0,1.5-0.7,1.5-1.5 C56.3,42.3,55.6,41.6,54.8,41.6"></path> <path class="st0" d="M14.2,55H8.4c-0.8,0-1.5,0.7-1.5,1.5c0,0.8,0.7,1.5,1.5,1.5h5.8c0.8,0,1.5-0.7,1.5-1.5 C15.7,55.6,15,55,14.2,55"></path> <path class="st0" d="M54.8,55H21.4c-0.8,0-1.5,0.7-1.5,1.5c0,0.8,0.7,1.5,1.5,1.5h33.5c0.8,0,1.5-0.7,1.5-1.5 C56.3,55.6,55.6,55,54.8,55"></path> </g> </svg> 