<?xml version="1.0" encoding="UTF-8"?> <svg xmlns="http://www.w3.org/2000/svg" xmlns:xlink="http://www.w3.org/1999/xlink" version="1.1" id="Слой_1" x="0px" y="0px" viewBox="0 0 87.9 87.9" style="enable-background:new 0 0 87.9 87.9;" xml:space="preserve"> <style type="text/css"> .st0{clip-path:url(#SVGID_2_); fill:#05c495;} </style> <g> <defs> <rect id="SVGID_1_" y="0" width="87.9" height="87.9"></rect> </defs> <clipPath id="SVGID_2_"> <use xlink:href="#SVGID_1_" style="overflow:visible;"></use> </clipPath> <path class="st0" d="M87.4,16L71.9,0.4c-0.6-0.6-1.5-0.6-2.1,0L42.1,28.1L25.4,11.7c0,0,0,0,0,0c-0.1-0.1-0.1-0.1-0.2-0.1 c0,0-0.1,0-0.1-0.1c-0.1,0-0.2-0.1-0.2-0.1c0,0,0,0-0.1,0L2.1,4.2C1.6,4.1,1,4.2,0.6,4.6C0.2,5,0.1,5.6,0.2,6.1l7.1,22.6 c0,0.1,0.1,0.3,0.2,0.4c0,0,0.1,0.1,0.1,0.1c0,0,0.1,0.1,0.1,0.1l16.7,16.4L0.4,69.7c-0.6,0.6-0.6,1.5,0,2.1L16,87.4 c0.3,0.3,0.7,0.4,1.1,0.4c0.4,0,0.8-0.2,1.1-0.4l24.2-24.2l19.6,19c0.3,0.2,0.6,0.4,0.9,0.4c2.3,2.1,5.2,3.3,8.3,3.3 c3.3,0,6.3-1.3,8.7-3.6c4.7-4.7,4.8-12.3,0.2-17.1c-0.1-0.2-0.2-0.5-0.4-0.7L59.9,45.6l27.5-27.5C88,17.5,88,16.6,87.4,16 M22.4,13.7l-1.1,3.8l-5.2,1.5c-0.5,0.1-0.9,0.5-1,1l-1.5,5.2l-3.8,1.1L4,8L22.4,13.7z M17.1,84.2L3.6,70.8l5.7-5.7l6.7,6.7 c0.3,0.3,0.7,0.4,1.1,0.4c0.4,0,0.8-0.1,1.1-0.4c0.6-0.6,0.6-1.5,0-2.1L11.4,63l5.5-5.5l6.7,6.7c0.3,0.3,0.7,0.4,1.1,0.4 c0.4,0,0.8-0.1,1.1-0.4c0.6-0.6,0.6-1.5,0-2.1L19,55.4l7.5-7.5l13.6,13.2L17.1,84.2z M77.6,80.2c-3.4,3.4-8.7,3.6-12.3,0.7l13-13 C81.2,71.5,81,76.8,77.6,80.2 M62.9,79.1L27.5,44.6L11.6,29l3.6-1c0.5-0.1,0.9-0.5,1-1l1.5-5.2l5.2-1.5c0.5-0.1,0.9-0.5,1-1 l1.1-3.6l31.6,31.1l19.7,18.9L62.9,79.1z M57.7,43.5L44.2,30.2l7.7-7.7l6.7,6.7c0.3,0.3,0.7,0.4,1.1,0.4c0.4,0,0.8-0.1,1.1-0.4 c0.6-0.6,0.6-1.5,0-2.1L54,20.4l6.3-6.3l6.7,6.7c0.3,0.3,0.7,0.4,1.1,0.4c0.4,0,0.8-0.1,1.1-0.4c0.6-0.6,0.6-1.5,0-2.1L62.4,12 l8.4-8.4l13.4,13.4L57.7,43.5z"></path> </g> </svg> 