<?xml version="1.0" encoding="UTF-8"?> <svg xmlns="http://www.w3.org/2000/svg" xmlns:xlink="http://www.w3.org/1999/xlink" version="1.1" id="Слой_1" x="0px" y="0px" viewBox="0 0 85.7 96.3" style="enable-background:new 0 0 85.7 96.3;" xml:space="preserve"> <style type="text/css"> .st0{clip-path:url(#SVGID_2_); fill:#05c495;} </style> <g> <defs> <rect id="SVGID_1_" width="85.7" height="96.3"></rect> </defs> <clipPath id="SVGID_2_"> <use xlink:href="#SVGID_1_" style="overflow:visible;"></use> </clipPath> <path class="st0" d="M49.2,14.6v-4.4h4.1c0.8,0,1.5-0.7,1.5-1.5V1.5c0-0.8-0.7-1.5-1.5-1.5H35.9c-0.8,0-1.5,0.7-1.5,1.5v7.2 c0,0.8,0.7,1.5,1.5,1.5h4.1v4.4c-9.7,1.1-18.3,5.6-24.8,12.2l-1.7-1.7l2.8-2.8c0.6-0.6,0.6-1.5,0-2.1l-5.8-5.8 c-0.6-0.6-1.5-0.6-2.1,0l-7.9,7.7c-0.6,0.6-0.6,1.5,0,2.1L6.3,30c0.3,0.3,0.7,0.4,1.1,0.4c0.4,0,0.8-0.1,1.1-0.4l2.9-2.9l1.9,1.9 c-6,7.1-9.6,16.3-9.6,26.3c0,22.6,18.4,41,41,41c22.6,0,41-18.4,41-41C85.6,34.3,69.7,16.9,49.2,14.6 M7.4,26.9l-3.7-3.8l5.6-5.6 l3.7,3.7l-2.2,2.2l-1.1,1.1L7.4,26.9z M41.4,7.2h-4.1V3h14.5v4.2h-4.1c-0.8,0-1.5,0.7-1.5,1.5v5.7h-1.6h-1.6V8.7 C42.9,7.8,42.3,7.2,41.4,7.2 M44.6,93.3c-20.9,0-38-17-38-38s17-38,38-38c0.8,0,1.6,0,2.4,0.1c0.4,0,0.8,0.1,1.2,0.1 c19.3,1.8,34.4,18.1,34.4,37.8C82.6,76.3,65.6,93.3,44.6,93.3"></path> <path class="st0" d="M66.2,30.7c-0.1-0.1-0.2-0.2-0.3-0.3c-5.7-4.9-13.1-7.8-21.2-7.8C26.6,22.6,12,37.3,12,55.3 s14.6,32.8,32.6,32.8s32.7-14.7,32.7-32.7C77.3,45.5,72.9,36.7,66.2,30.7 M44.5,85.1c-16.4,0-29.7-13.3-29.7-29.7 s13.3-29.7,29.7-29.7c6.9,0,13.2,2.4,18.2,6.3L46.5,50.6c-0.6-0.2-1.3-0.4-1.9-0.4c-2.8,0-5.1,2.3-5.1,5.1c0,2.8,2.3,5.1,5.1,5.1 c2.8,0,5-2.3,5-5.1c0-1-0.3-2-0.8-2.8l16.3-18.7c5.7,5.4,9.2,13,9.2,21.5C74.3,71.7,61,85.1,44.5,85.1 M46.7,55.3 c0,1.2-0.9,2.1-2.1,2.1s-2.1-0.9-2.1-2.1c0-1.1,0.9-2.1,2.1-2.1S46.7,54.2,46.7,55.3"></path> </g> </svg> 