<?xml version="1.0" encoding="UTF-8"?> <svg xmlns="http://www.w3.org/2000/svg" xmlns:xlink="http://www.w3.org/1999/xlink" version="1.1" id="Слой_1" x="0px" y="0px" viewBox="0 0 70.8 92.8" style="enable-background:new 0 0 70.8 92.8;" xml:space="preserve"> <style type="text/css"> .st0{clip-path:url(#SVGID_2_); fill:#05c495;} </style> <g> <defs> <rect id="SVGID_1_" width="70.8" height="92.8"></rect> </defs> <clipPath id="SVGID_2_"> <use xlink:href="#SVGID_1_" style="overflow:visible;"></use> </clipPath> <path class="st0" d="M6.4,15.4L18,20.5c-2.3,3.4-3.5,7.3-3.5,11.4c0,11.2,9.1,20.4,20.4,20.4s20.4-9.1,20.4-20.4 c0-4-1.2-8-3.4-11.3l10.2-4.8v19.4L59,41.8c-0.2,0.5-0.2,1,0.1,1.4s0.8,0.7,1.3,0.7h5.9c0.5,0,1-0.2,1.2-0.7 c0.3-0.4,0.3-0.9,0.1-1.4l-2.7-6.6V14.5c0-0.8-0.1-1.4-1.5-2C63.1,12.4,35.6,0.2,35.6,0.2c-0.4-0.2-0.8-0.2-1.2,0l-28,12.4 c-0.5,0.2-0.9,0.8-0.9,1.4S5.8,15.1,6.4,15.4 M52.2,31.9c0,9.6-7.8,17.4-17.4,17.4s-17.4-7.8-17.4-17.4c0-3.7,1.2-7.2,3.3-10.2 l13.6,6.1c0.2,0.1,0.4,0.1,0.6,0.1s0.4,0,0.6-0.1l13.4-6C51.1,24.8,52.2,28.3,52.2,31.9 M62.7,40.9l0.7-1.5l0.6,1.5H62.7z M35,3.2 L59.3,14L35,24.8L10.7,14L35,3.2z"></path> <path class="st0" d="M35.4,55.9C15.9,55.9,0,71.8,0,91.3c0,0.8,0.7,1.5,1.5,1.5h67.8c0.8,0,1.5-0.7,1.5-1.5 C70.8,71.8,54.9,55.9,35.4,55.9 M3.1,89.8c0.8-17.2,15-30.9,32.4-30.9S67,72.6,67.8,89.8H3.1z"></path> </g> </svg> 