<?xml version="1.0" encoding="UTF-8"?> <svg xmlns="http://www.w3.org/2000/svg" xmlns:xlink="http://www.w3.org/1999/xlink" version="1.1" id="Слой_1" x="0px" y="0px" viewBox="0 0 66.1 82.9" style="enable-background:new 0 0 66.1 82.9;" xml:space="preserve"> <style type="text/css"> .st0{clip-path:url(#SVGID_2_); fill:#05c495;} </style> <path d="M3,3h60.1v76.9H3V3z M0,82.9h66.1V0H0V82.9z" fill="#05c495"></path> <g> <defs> <rect id="SVGID_1_" y="0" width="66.1" height="82.9"></rect> </defs> <clipPath id="SVGID_2_"> <use xlink:href="#SVGID_1_" style="overflow:visible;"></use> </clipPath> <path class="st0" d="M42.6,53c1.4-1.9,2.2-4.2,2.2-6.8c0-6.5-5.3-11.7-11.7-11.7c-6.5,0-11.7,5.3-11.7,11.7c0,2.5,0.8,4.9,2.2,6.8 l-7.6,10.9c-0.4,0.5-0.4,1.2,0,1.7c0.3,0.5,1,0.8,1.6,0.6l5.8-1.3l1.1,5.5c0.1,0.6,0.6,1.1,1.3,1.2c0.1,0,0.1,0,0.2,0 c0.5,0,1.1-0.3,1.3-0.8L33,59.6L39,70.8c0.3,0.5,0.8,0.8,1.3,0.8c0.1,0,0.1,0,0.2,0c0.6-0.1,1.1-0.6,1.3-1.2l1.1-5.5l5.8,1.3 c0.6,0.1,1.2-0.1,1.6-0.6c0.3-0.5,0.3-1.2,0-1.7L42.6,53z M33,37.5c4.8,0,8.7,3.9,8.7,8.7c0,4.8-3.9,8.7-8.7,8.7s-8.7-3.9-8.7-8.7 C24.3,41.4,28.2,37.5,33,37.5 M26.4,65.7l-0.5-2.8c-0.1-0.4-0.3-0.7-0.6-1c-0.3-0.2-0.8-0.3-1.1-0.2l-3.6,0.8l5.1-7.2 c1.4,1.2,3.2,2.1,5.1,2.5L26.4,65.7z M42,61.7c-0.4-0.1-0.8,0-1.1,0.2c-0.3,0.2-0.6,0.6-0.6,1l-0.5,2.8l-4.2-8 c1.9-0.4,3.7-1.3,5.1-2.5l5.1,7.2L42,61.7z"></path> <path class="st0" d="M15.2,22.1h35.2c0.8,0,1.5-0.7,1.5-1.5c0-0.8-0.7-1.5-1.5-1.5H15.2c-0.8,0-1.5,0.7-1.5,1.5 C13.7,21.5,14.4,22.1,15.2,22.1"></path> </g> </svg> 